<svg width="27" height="24" viewBox="0 0 27 24" fill="none" xmlns="http://www.w3.org/2000/svg">
<path d="M26.1792 8.51686C25.9754 8.79974 25.6793 9.19833 25.3011 9.67421C24.7799 10.3299 24.0968 11.1399 23.2787 12C24.0968 12.86 24.7799 13.67 25.3011 14.3258C25.6793 14.8016 25.9754 15.2002 26.1792 15.4831C26.2899 15.6368 26.4008 15.7933 26.5057 15.9502C27.0471 16.7655 26.7426 17.8166 25.8255 18.2979C24.8398 18.8153 23.6919 18.4377 23.1275 17.61C22.9992 17.4243 22.6613 16.9463 22.1508 16.3042C21.7373 15.7839 21.2149 15.1612 20.6016 14.4996C18.0794 16.5671 14.7067 18.5337 10.8891 18.5361C8.72801 18.5491 6.60913 18.0141 4.76518 16.9953C2.91987 15.9757 1.42418 14.513 0.434296 12.7739C0.157318 12.2873 0.157318 11.7126 0.434296 11.226C1.42418 9.48701 2.91987 8.02428 4.76518 7.00469C6.60915 5.98586 8.72805 5.45088 10.8892 5.46393C14.7067 5.46641 18.0794 7.4329 20.6016 9.50042C21.2149 8.83881 21.7373 8.21606 22.1508 7.69582C22.4912 7.26763 22.7547 6.91282 22.9307 6.66831C23.017 6.54849 23.1024 6.42806 23.1847 6.306C23.7263 5.49122 24.9085 5.22079 25.8255 5.70202C26.7341 6.17885 27.039 7.24877 26.5025 8.05454C26.3977 8.21028 26.2892 8.36403 26.1792 8.51686Z" fill="#61503A"/>
</svg>
