<svg width="40" height="31" viewBox="0 0 40 31" fill="none" xmlns="http://www.w3.org/2000/svg">
<path d="M20 28.4166C19.6111 28.4166 19.2778 28.3305 19 28.1583C18.7222 27.9861 18.5139 27.76 18.375 27.4802C17.8472 26.2746 17.1805 25.1444 16.375 24.0896C15.5972 23.0347 14.5 21.7969 13.0833 20.376C11.6666 18.9552 10.5139 17.5989 9.62498 16.3073C8.76387 15.0156 8.33331 13.4548 8.33331 11.625C8.33331 9.10623 9.45831 6.97498 11.7083 5.23123C13.9861 3.46595 16.75 2.58331 20 2.58331C23.25 2.58331 26 3.46595 28.25 5.23123C30.5278 6.97498 31.6666 9.10623 31.6666 11.625C31.6666 13.584 31.1805 15.2201 30.2083 16.5333C29.2639 17.825 28.1666 19.1059 26.9166 20.376C25.4166 21.926 24.2778 23.2177 23.5 24.251C22.75 25.2628 22.125 26.3392 21.625 27.4802C21.4861 27.7816 21.2639 28.0184 20.9583 28.1906C20.6805 28.3413 20.3611 28.4166 20 28.4166ZM20 23.7989C20.4722 23.067 21 22.3458 21.5833 21.6354C22.1944 20.925 23.0833 19.9778 24.25 18.7937C25.4444 17.5882 26.4166 16.4795 27.1666 15.4677C27.9444 14.4344 28.3333 13.1535 28.3333 11.625C28.3333 9.83817 27.5139 8.32047 25.875 7.07185C24.2639 5.80172 22.3055 5.16665 20 5.16665C17.6944 5.16665 15.7222 5.80172 14.0833 7.07185C12.4722 8.32047 11.6666 9.83817 11.6666 11.625C11.6666 13.1535 12.0416 14.4344 12.7916 15.4677C13.5694 16.4795 14.5555 17.5882 15.75 18.7937C16.9166 19.9778 17.7916 20.925 18.375 21.6354C18.9861 22.3458 19.5278 23.067 20 23.7989ZM20 14.8541C21.1666 14.8541 22.1528 14.542 22.9583 13.9177C23.7639 13.2934 24.1666 12.5291 24.1666 11.625C24.1666 10.7208 23.7639 9.95658 22.9583 9.33227C22.1528 8.70797 21.1666 8.39581 20 8.39581C18.8333 8.39581 17.8472 8.70797 17.0416 9.33227C16.2361 9.95658 15.8333 10.7208 15.8333 11.625C15.8333 12.5291 16.2361 13.2934 17.0416 13.9177C17.8472 14.542 18.8333 14.8541 20 14.8541Z" fill="#61503A"/>
</svg>
