<svg width="35" height="28" viewBox="0 0 35 28" fill="none" xmlns="http://www.w3.org/2000/svg">
<g clip-path="url(#clip0_6_26)">
<path d="M25.4072 7.4261H25.4213M10.5887 2.28497H24.7016C28.5988 2.28497 31.758 4.84249 31.758 7.99734V19.4221C31.758 22.5769 28.5988 25.1344 24.7016 25.1344H10.5887C6.69151 25.1344 3.53223 22.5769 3.53223 19.4221V7.99734C3.53223 4.84249 6.69151 2.28497 10.5887 2.28497ZM23.2903 12.9899C23.4645 13.9408 23.2638 14.9118 22.717 15.765C22.1701 16.6182 21.3048 17.3101 20.2442 17.7423C19.1836 18.1744 17.9816 18.3248 16.8093 18.1721C15.637 18.0194 14.5541 17.5714 13.7145 16.8917C12.8749 16.212 12.3214 15.3353 12.1327 14.3863C11.9441 13.4373 12.1299 12.4643 12.6637 11.6057C13.1976 10.7471 14.0522 10.0466 15.1062 9.60393C16.1601 9.16122 17.3597 8.99882 18.5342 9.13981C19.7323 9.28363 20.8415 9.73557 21.6979 10.4289C22.5544 11.1222 23.1126 12.0201 23.2903 12.9899Z" stroke="#61503A" stroke-width="4" stroke-linecap="round" stroke-linejoin="round"/>
</g>
<defs>
<clipPath id="clip0_6_26">
<rect width="33.871" height="27.4194" fill="white" transform="translate(0.709656)"/>
</clipPath>
</defs>
</svg>
