<svg width="23" height="20" viewBox="0 0 23 20" fill="none" xmlns="http://www.w3.org/2000/svg">
<g clip-path="url(#clip0_4_22)">
<path fill-rule="evenodd" clip-rule="evenodd" d="M9.44643 10H2.18008C1.86135 10 1.57138 9.83969 1.43619 9.5887C1.301 9.33772 1.34499 9.04138 1.54903 8.82846L9.76332 0.257029C9.95743 0.0544844 10.2532 -0.0309808 10.532 0.0100026C10.5801 0.00505026 10.629 0.00250294 10.6786 0.00250294C11.3591 0.00250291 11.9107 0.482198 11.9107 1.07393V12.8572H22.1786C22.448 12.8572 22.7003 12.972 22.8538 13.1646C23.0072 13.3571 23.0422 13.6029 22.9478 13.8222L21.2829 17.6826C20.6818 19.0766 19.1493 20 17.4373 20H5.56272C3.85068 20 2.31822 19.0766 1.71709 17.6826L0.0523057 13.8222C-0.042291 13.6029 -0.00717542 13.3571 0.14628 13.1646C0.299736 12.972 0.552021 12.8572 0.821433 12.8572H9.44643V10ZM15.4123 3.13655C15.198 2.8938 14.8298 2.7967 14.4966 2.89509C14.1634 2.99346 13.9392 3.26546 13.9392 3.57145V9.28573C13.9392 9.68022 14.307 10 14.7606 10H19.8045C20.1173 10 20.403 9.84555 20.5411 9.6016C20.6795 9.35766 20.6466 9.06659 20.456 8.85083L15.4123 3.13655Z" fill="#61503A"/>
</g>
<defs>
<clipPath id="clip0_4_22">
<rect width="23" height="20" fill="white"/>
</clipPath>
</defs>
</svg>
