<svg width="34" height="28" viewBox="0 0 34 28" fill="none" xmlns="http://www.w3.org/2000/svg">
<g clip-path="url(#clip0_6_56)">
<path d="M31.8105 7.75398C31.6429 7.21178 31.3015 6.71498 30.8207 6.31379C30.34 5.91259 29.737 5.6212 29.0726 5.46904C26.6452 4.9892 16.9355 4.9892 16.9355 4.9892C16.9355 4.9892 7.22585 4.9892 4.79843 5.51473C4.13406 5.66689 3.53106 5.95829 3.05033 6.35949C2.5696 6.76068 2.22817 7.25747 2.06052 7.79968C1.61627 9.79393 1.39896 11.817 1.41133 13.8434C1.39549 15.885 1.61282 17.9235 2.06052 19.9327C2.24534 20.4581 2.59442 20.936 3.07403 21.3203C3.55364 21.7045 4.14757 21.9821 4.79843 22.1263C7.22585 22.6518 16.9355 22.6518 16.9355 22.6518C16.9355 22.6518 26.6452 22.6518 29.0726 22.1263C29.737 21.9741 30.34 21.6827 30.8207 21.2815C31.3015 20.8803 31.6429 20.3836 31.8105 19.8413C32.2514 17.8621 32.4686 15.8545 32.4597 13.8434C32.4756 11.8017 32.2582 9.76325 31.8105 7.75398Z" stroke="#61503A" stroke-width="4" stroke-linecap="round" stroke-linejoin="round"/>
<path d="M13.7601 17.5793L21.875 13.8434L13.7601 10.1075V17.5793Z" stroke="#61503A" stroke-width="4" stroke-linecap="round" stroke-linejoin="round"/>
</g>
<defs>
<clipPath id="clip0_6_56">
<rect width="33.871" height="27.4194" fill="white" transform="translate(0 0.419312)"/>
</clipPath>
</defs>
</svg>
